:SAMPLES-PER-SECOND 30
:FULLY-SPECIFIED
:DEGREES
168
root  -34.4379 37.2448 34.2707 -162.145 14.1384 -179.396
RightUpLeg  -42.8303 -5.18948 8.77683
RightLeg  36.5232 13.0418 -3.15371
RightFoot  -13.0688 0.0458333 -4.96613
RightToes  -5.82073e-011 -3.18055e-015 -2.98177e-016
Spine  21.2738 -2.05991 3.79479
Spine1  7.68043 -2.10034 -0.75971
HEad  -20.5033 9.47485 -1.23153
LeftShoulder1  -3.88251e-019 9.70628e-020 -3.87848e-018
LeftArm  -178.901 88.3013 141.169
LeftForeArm  -0.63327 -17.5035 -3.79469
LeftHand  -0.168309 2.21689 6.82905
RightShoulder  7.94002 10.6415 37.3423
RightArm  60.1229 -62.8788 -59.8255
RightForeArm  6.49008 12.5898 -4.45253
RightHand  -0.214109 -3.85953 -14.5555
LeftUpLeg  -40.3312 -1.21672 -2.29262
LeftLeg  38.4446 -4.40663 8.87446
LeftFoot  -16.6783 -0.0904206 -1.41636
LeftToes  1.2018e-011 -3.94675e-011 -1.33631e-011
169
root  -34.572 36.3494 34.3532 -158.83 14.996 -178.941
RightUpLeg  -49.6916 -4.71433 9.66595
RightLeg  42.5984 13.7963 -2.92618
RightFoot  -15.4182 -0.0459468 -4.95733
RightToes  -5.82073e-011 -3.18055e-015 -2.98177e-016
Spine  21.7387 -2.01747 4.36479
Spine1  9.6323 -1.92265 -1.42601
HEad  -25.5248 10.2245 -1.43031
LeftShoulder1  -3.88251e-019 9.70628e-020 -3.87848e-018
LeftArm  166.288 83.6769 127.911
LeftForeArm  1.22349 -15.8161 -4.06645
LeftHand  -0.0857146 2.93916 4.39715
RightShoulder  7.7205 10.543 36.4707
RightArm  69.5591 -61.3861 -70.9357
RightForeArm  4.85623 13.3847 -4.39874
RightHand  -0.36901 -2.84752 -15.9656
LeftUpLeg  -47.0139 -0.574369 -2.20465
LeftLeg  44.5779 -5.04565 10.1235
LeftFoot  -19.7651 -0.183507 -2.22214
LeftToes  1.2018e-011 -3.94675e-011 -1.33631e-011
170
root  -34.7052 35.3024 34.3918 -155.967 15.8224 -178.322
RightUpLeg  -56.1643 -3.85658 10.3988
RightLeg  49.0568 14.218 -2.92032
RightFoot  -17.8765 -0.13338 -4.66046
RightToes  -5.82073e-011 -3.18055e-015 -2.98177e-016
Spine  22.5259 -1.88791 4.89163
Spine1  10.7903 -1.75961 -1.76561
HEad  -29.3854 11.0147 -1.52325
LeftShoulder1  -3.88251e-019 9.70628e-020 -3.87848e-018
LeftArm  163.116 79.3191 124.622
LeftForeArm  1.8359 -15.0355 -4.22841
LeftHand  -0.0399667 3.03495 1.6932
RightShoulder  7.46127 10.4494 35.3745
RightArm  77.3738 -58.9606 -79.1328
RightForeArm  0.382452 14.958 -4.40804
RightHand  -0.447961 -2.44877 -16.8864
LeftUpLeg  -53.344 -0.08368 -1.93937
LeftLeg  51.06 -5.77902 11.567
LeftFoot  -22.8321 -0.313145 -2.95984
LeftToes  1.2018e-011 -3.94675e-011 -1.33631e-011
171
root  -34.8344 34.1614 34.3628 -153.427 16.3795 -177.097
RightUpLeg  -61.9036 -2.57097 11.4055
RightLeg  55.1751 14.2809 -3.35723
RightFoot  -20.0678 -0.228426 -4.87546
RightToes  -5.82073e-011 -3.18055e-015 -2.98177e-016
Spine  23.9465 -1.78201 6.02606
Spine1  10.7185 -1.51483 -2.0708
HEad  -32.2306 11.6973 -1.50845
LeftShoulder1  -3.88251e-019 9.70628e-020 -3.87848e-018
LeftArm  160.788 75.5534 121.216
LeftForeArm  2.06512 -15.3567 -4.61859
LeftHand  0.017543 2.8871 -1.8082
RightShoulder  7.34462 10.4302 34.8231
RightArm  82.4948 -56.2718 -83.3283
RightForeArm  -4.1561 16.6681 -4.82955
RightHand  -0.571064 -1.91485 -18.2813
LeftUpLeg  -59.2163 0.540627 -1.08295
LeftLeg  57.7028 -6.78856 12.9594
LeftFoot  -25.815 -0.438716 -3.31411
LeftToes  1.2018e-011 -3.94675e-011 -1.33631e-011
172
root  -34.9428 32.9793 34.2229 -151.097 16.6481 -175.669
RightUpLeg  -66.9875 -1.29297 12.4944
RightLeg  61.0455 14.3083 -3.991
RightFoot  -22.5205 -0.341608 -5.11871
RightToes  -5.82073e-011 -3.18055e-015 -2.98177e-016
Spine  25.4466 -1.73833 7.28428
Spine1  10.2066 -1.20807 -2.40459
HEad  -34.6951 12.1242 -1.4746
LeftShoulder1  -3.88251e-019 9.70628e-020 -3.87848e-018
LeftArm  160.095 73.4666 118.948
LeftForeArm  2.99113 -16.1262 -4.947
LeftHand  0.123878 2.26011 -5.67971
RightShoulder  7.27671 10.4053 34.5304
RightArm  84.7106 -54.8974 -83.1369
RightForeArm  -7.74335 17.9882 -5.65748
RightHand  -0.793255 -1.22579 -21.3212
LeftUpLeg  -64.4772 1.30729 -0.128635
LeftLeg  64.1058 -8.02567 14.1099
LeftFoot  -28.911 -0.573719 -3.56283
LeftToes  1.2018e-011 -3.94675e-011 -1.33631e-011
173
root  -35.0238 31.8904 33.9663 -149.405 17.0639 -174.884
RightUpLeg  -71.0678 -0.445899 12.8627
RightLeg  66.5798 14.5756 -4.23994
RightFoot  -25.4872 -0.386422 -4.40038
RightToes  -5.82073e-011 -3.18055e-015 -2.98177e-016
Spine  26.9775 -1.53148 7.51627
Spine1  9.64302 -0.927875 -2.2603
HEad  -36.8278 12.2949 -1.5669
LeftShoulder1  -3.88251e-019 9.70628e-020 -3.87848e-018
LeftArm  162.189 73.7282 117.807
LeftForeArm  3.29164 -17.2945 -5.02795
LeftHand  0.315813 0.29292 -7.90129
RightShoulder  7.05014 10.2718 33.6534
RightArm  85.8268 -55.5934 -79.3214
RightForeArm  -13.1104 19.5032 -7.43298
RightHand  -1.00043 -0.877007 -24.8827
LeftUpLeg  -68.4009 1.95322 0.0377613
LeftLeg  69.4847 -9.1697 15.1065
LeftFoot  -31.8452 -0.754046 -4.04019
LeftToes  1.2018e-011 -3.94675e-011 -1.33631e-011
174
root  -35.0788 31.0169 33.5964 -148.482 17.7494 -174.863
RightUpLeg  -73.8929 0.0215049 12.2672
RightLeg  71.2168 14.9038 -4.1833
RightFoot  -28.2578 -0.354684 -3.39068
RightToes  -5.82073e-011 -3.18055e-015 -2.98177e-016
Spine  29.0585 -1.0053 6.73502
Spine1  8.11936 -0.71685 -1.27252
HEad  -38.1527 12.2372 -1.91736
LeftShoulder1  -3.88251e-019 9.70628e-020 -3.87848e-018
LeftArm  167.252 76.3696 116.544
LeftForeArm  0.784642 -19.2503 -4.77827
LeftHand  0.508546 -3.04365 -7.29113
RightShoulder  6.69597 10.0648 32.2469
RightArm  84.5432 -57.9233 -71.9653
RightForeArm  -19.7751 21.5749 -10.1502
RightHand  -1.11979 -0.796722 -27.2793
LeftUpLeg  -70.7123 2.16943 -0.527916
LeftLeg  73.4436 -10.0241 16.1511
LeftFoot  -34.3014 -0.974711 -4.70581
LeftToes  1.2018e-011 -3.94675e-011 -1.33631e-011
175
root  -35.0849 30.3519 33.0707 -147.648 18.0766 -174.92
RightUpLeg  -75.7525 0.307757 11.5729
RightLeg  74.6238 15.0421 -4.54634
RightFoot  -30.5162 -0.370833 -3.10549
RightToes  -5.82073e-011 -3.18055e-015 -2.98177e-016
Spine  31.4851 -0.489294 6.32241
Spine1  5.01136 -0.517837 -0.104952
HEad  -38.556 11.8852 -2.38176
LeftShoulder1  -3.88251e-019 9.70628e-020 -3.87848e-018
LeftArm  170.415 82.3064 115.275
LeftForeArm  1.04846 -19.7149 -4.93457
LeftHand  0.543714 -6.69866 -5.09001
RightShoulder  6.42956 9.92248 31.1306
RightArm  73.8363 -60.9291 -57.6835
RightForeArm  -21.7497 23.1068 -11.6077
RightHand  -1.26075 -0.440886 -28.4892
LeftUpLeg  -72.073 1.8796 -0.89993
LeftLeg  76.3294 -10.6845 17.1692
LeftFoot  -36.6064 -1.23102 -5.42986
LeftToes  1.2018e-011 -3.94675e-011 -1.33631e-011
176
root  -35.0261 29.8982 32.392 -146.713 17.6754 -174.661
RightUpLeg  -76.4742 0.330797 11.5144
RightLeg  76.825 15.0626 -5.2723
RightFoot  -32.8259 -0.356105 -2.71842
RightToes  -5.82073e-011 -3.18055e-015 -2.98177e-016
Spine  33.2542 -0.377745 6.84993
Spine1  1.68768 -0.3378 0.546647
HEad  -38.5425 11.3128 -2.73563
LeftShoulder1  -3.88251e-019 9.70628e-020 -3.87848e-018
LeftArm  -23.4122 86.8328 -75.0433
LeftForeArm  10.5322 -15.4221 -6.29366
LeftHand  0.373065 -7.08732 -3.28587
RightShoulder  6.35798 9.90935 30.772
RightArm  49.706 -61.523 -30.4717
RightForeArm  -18.7227 22.1056 -10.851
RightHand  -1.47697 0.392352 -28.6514
LeftUpLeg  -72.6029 1.33963 -0.713886
LeftLeg  78.307 -11.1886 17.9154
LeftFoot  -38.9257 -1.52249 -6.16943
LeftToes  1.2018e-011 -3.94675e-011 -1.33631e-011
177
root  -34.9276 29.7743 31.6395 -146.587 17.1586 -174.492
RightUpLeg  -75.3012 -0.0572513 11.5545
RightLeg  77.7418 15.095 -5.54346
RightFoot  -35.032 -0.15951 -1.44736
RightToes  -5.82073e-011 -3.18055e-015 -2.98177e-016
Spine  33.9298 -0.464433 7.27574
Spine1  -0.147717 -0.282521 1.08163
HEad  -38.6586 10.8441 -3.03802
LeftShoulder1  -3.88251e-019 9.70628e-020 -3.87848e-018
LeftArm  -22.1 71.2912 -71.0884
LeftForeArm  18.4633 -8.42148 -5.85238
LeftHand  0.0282501 -4.69442 0.0943539
RightShoulder  6.48552 10.0138 31.2341
RightArm  20.5727 -53.2259 1.28351
RightForeArm  -12.029 18.7227 -7.972
RightHand  -1.58881 1.08172 -27.6033
LeftUpLeg  -71.3484 0.91262 -0.669793
LeftLeg  78.8528 -11.308 18.4169
LeftFoot  -40.5872 -1.76525 -6.75652
LeftToes  1.2018e-011 -3.94675e-011 -1.33631e-011
